<svg width="64" height="64" viewBox="0 0 64 64" fill="none" xmlns="http://www.w3.org/2000/svg">
<rect width="64" height="64" rx="25.263" fill="#4759FF"/>
<path fill-rule="evenodd" clip-rule="evenodd" d="M32.9562 26.0629C31.1308 39.0513 30.8644 40.6028 30.4925 40.402C25.7971 37.8664 20.1949 37.8797 16.9706 40.4344C13.1287 43.4782 14.2107 48.1931 19.3891 50.9733C21.3403 52.0208 25.5727 52.5529 27.8696 52.0395C29.9159 51.5824 31.992 50.3488 32.9491 49.0214C33.626 48.0833 33.7484 47.4153 35.3989 35.6716L36.9434 24.6818C37.0453 23.9567 37.7647 23.4891 38.4687 23.6904V23.6904C40.0435 24.1406 42.2571 25.4695 43.04 26.4344C43.9535 27.5605 44.3079 28.929 44.0893 30.4846C43.9765 31.2875 43.994 31.9599 44.1285 31.9788C44.263 31.9977 44.9741 31.6214 45.7087 31.1422C48.1521 29.5495 49.1523 27.1314 48.1753 25.1785C47.7972 24.4224 46.819 23.5644 44.514 21.9672C42.7842 20.7685 41.033 19.379 40.623 18.8795C39.4832 17.4915 38.8093 15.6634 38.7319 13.7477L38.7296 13.6918C38.6902 12.7195 37.9612 11.9144 36.9976 11.779V11.779C35.8961 11.6242 34.8776 12.3916 34.7228 13.4931L32.9562 26.0629Z" fill="white"/>
</svg>
